.
 
http://www.scenetime.com    -   SceneTime [ We been having it ] !!!


How come you press harder on a remote control when you know the battery is dead? so you better seed to get speed ;)

        Seed back for speed


...................................NFO:.................................................








































          
          
              
              
                    
                    
                    
                    

Soul.Surfer.2011.DVDRip.XviD.AC3-SiC

Poster:
[img]http://leetleech.org/images/40514940759043137800.png[/img]

IMDB Link:
http://www.imdb.com/title/tt1596346/

Description:
A teenage surfer girl summons the courage to go back into the 
ocean after losing an arm in a shark attack. 

MediaInfo:
General
Complete name                    : Soul.Surfer.2011.DVDRip.XviD.AC3-SiC.avi
Format                           : AVI
Format/Info                      : Audio Video Interleave
File size                        : 1.45 GiB
Duration                         : 1h 46mn
Overall bit rate                 : 1 957 Kbps

Video
ID                               : 0
Format                           : MPEG-4 Visual
Format profile                   : Advanced Simple@L5
Format settings, BVOP            : 1
Format settings, QPel            : No
Format settings, GMC             : No warppoints
Format settings, Matrix          : Default (H.263)
Codec ID                         : XVID
Codec ID/Hint                    : XviD
Duration                         : 1h 46mn
Bit rate                         : 1 501 Kbps
Width                            : 720 pixels
Height                           : 304 pixels
Display aspect ratio             : 2.35:1
Frame rate                       : 23.976 fps
Color space                      : YUV
Chroma subsampling               : 4:2:0
Bit depth                        : 8 bits
Scan type                        : Progressive
Compression mode                 : Lossy
Bits/(Pixel*Frame)               : 0.286
Stream size                      : 1.12 GiB (77%)
Writing library                  : XviD 1.2.1 (UTC 2008-12-04)

Audio
ID                               : 1
Format                           : AC-3
Format/Info                      : Audio Coding 3
Mode extension                   : CM (complete main)
Codec ID                         : 2000
Duration                         : 1h 46mn
Bit rate mode                    : Constant
Bit rate                         : 448 Kbps
Channel(s)                       : 6 channels
Channel positions                : Front: L C R, Side: L R, LFE
Sampling rate                    : 48.0 KHz
Bit depth                        : 16 bits
Compression mode                 : Lossy
Stream size                      : 341 MiB (23%)
Alignment                        : Aligned on interleaves
Interleave, duration             : 64 ms (1.53 video frames)
Interleave, preload duration     : 192 ms
Title                            : VTS_01_1 T80 3_2ch 448Kbps DELAY 0ms

Screenshots:
[img]http://leetleech.org/images/48525864125109089460.png[/img]
[img]http://leetleech.org/images/36416353240949402788.png[/img]
[img]http://leetleech.org/images/38127864723722155915.png[/img]
[img]http://leetleech.org/images/73017595235868530937.png[/img]
[img]http://leetleech.org/images/30417016097893437959.png[/img]

Note: N/A

Encoder: TheSL

Enjoy!

Respects to CaptainHomey, Cyanide, CM8, Rx, THC, ELEKTRI4KA, 
Killerhz, PA, YeFsTe, Empire and everyone in the struggle...